<?xml version="1.0" standalone="no"?><!DOCTYPE svg PUBLIC "-//W3C//DTD SVG 1.1//EN" "http://www.w3.org/Graphics/SVG/1.1/DTD/svg11.dtd"><svg t="1614679237874" class="icon" viewBox="0 0 1024 1024" version="1.1" xmlns="http://www.w3.org/2000/svg" p-id="1345" xmlns:xlink="http://www.w3.org/1999/xlink" width="128" height="128"><defs><style type="text/css"></style></defs><path d="M179 211.8C179 326.2 271.7 419 386.2 419c114.5 0 207.3-92.8 207.3-207.2v-0.1c0-114.5-92.8-207.3-207.2-207.3C271.8 4.5 179 97.3 179 211.8c0-0.1 0-0.1 0 0z m835.7 168c-12.3-12.3-32.5-12.3-44.8 0L626.1 723.5c-2.7 2.7-4.7 6-6.2 9.3-0.5 0-0.8 0.2-1.2 0.2s-0.9-0.2-1.2-0.2c-12.6 10.4-31 9.5-42.5-2.1-12.3-12.3-12.3-32.5 0-44.8L676.9 584c-43.3-42.7-99.3-74.5-162.6-91.1l-90.2 90.2-34 130.1c-0.8 2.1-6.5 2.1-7.2 0L350.3 588l-94.4-94.4C110.2 532.9 3.8 654.4 3.8 798.2v58.9c0 28.9 26 52.3 58.2 52.3h75.1V810c0-9.5 7.7-17.1 17.1-17.1 9.5 0 17.1 7.7 17.1 17.1v99.3h540.1c32.2 0 58.2-23.4 58.2-52.3v-58.9c0-37.7-7.8-73.6-21.2-107.2l266.8-266.8c11.8-11.9 11.8-32-0.5-44.3z" p-id="1346"></path></svg>