<?xml version="1.0" standalone="no"?><!DOCTYPE svg PUBLIC "-//W3C//DTD SVG 1.1//EN" "http://www.w3.org/Graphics/SVG/1.1/DTD/svg11.dtd"><svg t="1614051893736" class="icon" viewBox="0 0 1024 1024" version="1.1" xmlns="http://www.w3.org/2000/svg" p-id="2313" xmlns:xlink="http://www.w3.org/1999/xlink" width="128" height="128"><defs><style type="text/css"></style></defs><path d="M263.4 1013.5c-7.8 0-15.2-3.1-20.8-8.6-5.5-5.5-8.6-13.1-8.6-20.8V261.2c0-7.8 3.1-15.4 8.6-20.9 5.5-5.5 12.9-8.6 20.8-8.6h723.1c16.2 0 29.4 13.2 29.4 29.4V547c0 3.5-1.4 6.9-3.9 9.4s-5.9 3.9-9.4 3.9h-64.8c-3.5 0-6.9-1.4-9.4-3.9s-3.9-5.8-3.9-9.4V322.8H325.2v599.5h224.3c3.5 0 6.9 1.4 9.4 3.9s3.9 5.9 3.9 9.4v64.7c0 3.5-1.4 6.9-3.9 9.4s-5.9 3.9-9.4 3.9H263.4z m523.4 0c-5 0-9.6-1.9-13.2-5.5-3.5-3.5-5.5-8.3-5.5-13.2V851.7H624.9c-10.2 0-18.5-8.4-18.5-18.6v-53.9c0-10.3 8.3-18.6 18.5-18.6h143.3V617.2c0-10.3 8.4-18.6 18.6-18.6h54c10.2 0 18.5 8.3 18.5 18.6v143.3h143.3c10.3 0 18.6 8.4 18.6 18.6V833c0 10.3-8.3 18.6-18.6 18.6H859.3v143.3c0 10.3-8.4 18.6-18.6 18.6h-53.9zM20.7 786.9c-3.5 0-6.9-1.4-9.4-3.9s-3.9-5.9-3.8-9.4V34.5c0-16.2 13.2-29.4 29.4-29.4H776c3.5 0 6.9 1.4 9.4 3.9s3.9 5.9 3.9 9.4V83c0 3.5-1.4 6.9-3.9 9.4s-5.9 3.9-9.4 3.9H98.6v677.4c0 3.5-1.4 6.9-3.9 9.4s-5.8 3.9-9.4 3.9H20.7z" p-id="2314"></path></svg>