<?xml version="1.0" standalone="no"?><!DOCTYPE svg PUBLIC "-//W3C//DTD SVG 1.1//EN" "http://www.w3.org/Graphics/SVG/1.1/DTD/svg11.dtd"><svg t="1658909080602" class="icon" viewBox="0 0 1025 1024" version="1.1" xmlns="http://www.w3.org/2000/svg" p-id="4725" xmlns:xlink="http://www.w3.org/1999/xlink" width="200.1953125" height="200"><defs><style type="text/css">@font-face { font-family: feedback-iconfont; src: url("//at.alicdn.com/t/font_1031158_u69w8yhxdu.woff2?t=1630033759944") format("woff2"), url("//at.alicdn.com/t/font_1031158_u69w8yhxdu.woff?t=1630033759944") format("woff"), url("//at.alicdn.com/t/font_1031158_u69w8yhxdu.ttf?t=1630033759944") format("truetype"); }
</style></defs><path d="M293.376 969.216c-12.8 0-24.576-5.12-33.792-13.824-9.216-9.216-13.824-20.992-13.824-33.792s5.12-24.576 13.824-33.792l411.648-375.808-411.136-375.808C250.88 126.976 245.76 115.2 245.76 102.4s5.12-24.576 13.824-33.792c9.216-9.216 20.992-13.824 33.792-13.824s24.576 5.12 33.792 13.824L773.632 476.16c9.728 9.728 14.336 22.528 13.824 36.352 0.512 13.312-4.096 26.112-13.824 35.328l-446.464 408.064c-8.704 8.704-20.992 13.312-33.792 13.312z" p-id="4726"></path></svg>