<svg t="1614135906005" class="icon" viewBox="0 0 1028 1024" version="1.1" xmlns="http://www.w3.org/2000/svg" p-id="2435" width="128" height="128"><path d="M321.4 417.6c0 66 55.3 123.7 134.5 140.6l2.6 0.6v165.7c0.4 19.1 19.2 34.4 41.9 34.4h1.1c22.9 0 41.6-15.4 42-34.5v-57.7h79.9c10.7 0 20.7-3.4 28.3-9.5 7.5-6.2 11.6-14.2 11.6-22.7 0-17.7-18-32.2-39.9-32.2h-80.1v-43.4l2.6-0.6c79.4-16.7 134.7-74.5 134.7-140.7 0-80.5-80.7-146-179.8-146-98.7 0.1-179.4 65.5-179.4 146z m269.1 0c0 40.1-40 72.7-89.2 72.7-49.3 0-89.3-32.6-89.3-72.7s40.2-72.7 89.3-72.7c49.2 0.1 89.2 32.6 89.2 72.7z m433.4-264.9L516.5 1.6l-2.2-0.7-2.3 0.7L4.7 152.7l-4.6 1.4v475.1c0 127.5 245 340.3 505.3 391.7l7.4 1.5 1.6 0.3 1.6-0.3 7.4-1.6c260.2-51.2 505.3-264.1 505.3-391.5V153.9l-4.8-1.2z m-75.4 476.4c0 77.4-196.2 271.4-433.3 322.5l-0.9 0.2-0.8-0.2c-237.2-51-433.4-245-433.4-322.5V203l2.5-0.7L514.3 73.7l1.2 0.3 433 129v426.1z m0 0" p-id="2436" fill="#ffffff"></path></svg>