<?xml version="1.0" standalone="no"?><!DOCTYPE svg PUBLIC "-//W3C//DTD SVG 1.1//EN" "http://www.w3.org/Graphics/SVG/1.1/DTD/svg11.dtd"><svg t="1662434169985" class="icon" viewBox="0 0 1024 1024" version="1.1" xmlns="http://www.w3.org/2000/svg" p-id="7556" xmlns:xlink="http://www.w3.org/1999/xlink" width="200" height="200"><path d="M695.808 545.792H328.192c-132.608 0-240.128 89.6-240.128 211.968v59.904c0 65.024 57.344 118.272 128 118.272h591.872c70.656 0 128-52.736 128-118.272V757.76c0-121.856-107.52-211.968-240.128-211.968zM552.96 737.28c0 16.384-18.432 29.696-40.96 29.696s-40.96-13.312-40.96-29.696v-108.544c0-16.384 18.432-29.696 40.96-29.696s40.96 13.312 40.96 29.696V737.28zM496.128 486.912h15.872c119.296 0 216.064-89.088 216.064-199.68V117.76c0-16.384-14.336-29.696-32.256-29.696h-199.68c-119.296 0-216.064 89.088-216.064 199.68s96.768 199.168 216.064 199.168z" p-id="7557"></path></svg>