<?xml version="1.0" standalone="no"?><!DOCTYPE svg PUBLIC "-//W3C//DTD SVG 1.1//EN" "http://www.w3.org/Graphics/SVG/1.1/DTD/svg11.dtd"><svg t="1614220413616" class="icon" viewBox="0 0 1024 1024" version="1.1" xmlns="http://www.w3.org/2000/svg" p-id="3647" xmlns:xlink="http://www.w3.org/1999/xlink" width="128" height="128"><defs><style type="text/css"></style></defs><path d="M46.9 651.5l276.6-276.6c8.1-8.5 19.4-13.4 31.2-13.4s23.1 4.8 31.2 13.4l249.9 249.9c8.1 8.5 19.4 13.4 31.2 13.4s23.1-4.8 31.2-13.4l227.5-227.6c8.1-8.5 19.4-13.4 31.2-13.4s23.1 4.8 31.2 13.4c8.4 8.2 13.2 19.5 13.3 31.2v493c-0.1 24.6-20 44.5-44.6 44.6H64.7c-24.6-0.1-44.6-20-44.6-44.6V714c0-22.3 8.9-46.9 26.8-62.5z m754-518.8c-24.6-0.1-44.5-20-44.6-44.6 0-24.5 20.1-44.6 44.6-44.6h178.4c24.5 0 44.6 20.1 44.6 44.6v178.4c-0.1 24.6-20 44.6-44.6 44.6-24.6-0.1-44.5-20-44.6-44.6v-58L718.3 425.1c-2.2 2.2-11.1 13.3-13.4 15.6-8.1 8.5-19.4 13.4-31.2 13.4s-23.1-4.8-31.2-13.4L374.9 172.9c-4.1-4.3-9.7-6.7-15.6-6.7s-11.6 2.4-15.6 6.7L75.9 440.6c-8.1 8.5-19.4 13.4-31.2 13.4s-23.1-4.8-31.2-13.4C4.8 432.4 0 421.2 0 409.4s4.8-23.1 13.4-31.2L328 63.6c8.1-8.5 19.4-13.4 31.2-13.4s23.1 4.8 31.2 13.4l267.7 267.7c4.1 4.3 9.7 6.7 15.6 6.7s11.5-2.4 15.6-6.7L885.6 135h-84.8v-2.3h0.1z m0 0" p-id="3648"></path></svg>