<?xml version="1.0" standalone="no"?><!DOCTYPE svg PUBLIC "-//W3C//DTD SVG 1.1//EN" "http://www.w3.org/Graphics/SVG/1.1/DTD/svg11.dtd"><svg t="1614049016475" class="icon" viewBox="0 0 1026 1024" version="1.1" xmlns="http://www.w3.org/2000/svg" p-id="1755" xmlns:xlink="http://www.w3.org/1999/xlink" width="128.25" height="128"><defs><style type="text/css"></style></defs><path d="M289.003 1024c-37.274 0-72.35-14.79-98.732-41.672-26.282-26.881-40.872-62.657-40.872-100.73V209.856H39.674C17.789 209.857 0 191.669 0 169.384s17.788-40.472 39.673-40.472h234.74V92.437c0-50.266 40.072-91.138 89.238-91.138h299.595c23.784 0 46.269 9.594 63.157 26.982 16.789 17.288 26.082 40.072 26.082 64.156v36.475h234.04c22.285 0 39.673 17.188 39.673 39.173 0 22.285-17.788 40.472-39.673 40.472H876.901v673.04c0 38.074-14.49 73.85-40.872 100.731-26.382 26.882-61.358 41.672-98.732 41.672H289.003z m-60.159-142.503c0 33.877 26.982 61.458 60.16 61.458h448.293c33.177 0 60.159-27.58 60.159-61.458l0.7-673.04H228.843v673.04zM673.84 128.912V92.437c0-6.296-4.397-10.793-10.593-10.793H363.752c-6.096 0-10.593 4.597-10.593 10.793v36.475H673.84z m13.89 703.32c-21.185 0-38.973-18.089-39.672-40.373V384.737c0-22.285 17.788-40.472 39.673-40.472s39.673 18.187 39.673 40.472v407.022c0 22.285-17.788 40.472-39.673 40.472z m-174.58 0c-21.485 0-39.673-18.488-39.673-40.473V384.737c0-22.285 17.788-40.472 39.673-40.472s39.673 18.187 39.673 40.472v407.022c0 22.285-17.788 40.472-39.673 40.472z m-174.58 0c-21.186 0-38.974-18.089-39.674-40.373V384.737c0-22.285 17.788-40.472 39.673-40.472s39.673 18.187 39.673 40.472v407.022c0 22.285-17.788 40.472-39.673 40.472z" p-id="1756" fill="#4460E6"></path></svg>