<?xml version="1.0" standalone="no"?><!DOCTYPE svg PUBLIC "-//W3C//DTD SVG 1.1//EN" "http://www.w3.org/Graphics/SVG/1.1/DTD/svg11.dtd"><svg t="1614240042804" class="icon" viewBox="0 0 1024 1024" version="1.1" xmlns="http://www.w3.org/2000/svg" p-id="1458" xmlns:xlink="http://www.w3.org/1999/xlink" width="128" height="128"><defs><style type="text/css"></style></defs><path d="M953.4 1022H72.8c-38.6 0-70-31.4-70-70V71.5c0-38.6 31.4-70 70-70h880.5c38.6 0 70 31.4 70 70V952c0 38.6-31.4 70-69.9 70zM72.8 66.8c-2.5 0-4.7 2.2-4.7 4.7V952c0 2.5 2.2 4.7 4.7 4.7h880.5c2.5 0 4.7-2.2 4.7-4.7V71.5c0-2.5-2.2-4.7-4.7-4.7H72.8z" p-id="1459"></path><path d="M792.5 791.1c-13 13-34.3 13-47.4 0L233.7 279.7c-13-13-13-34.3 0-47.4 13-13 34.3-13 47.4 0l511.4 511.4c13 13.1 13 34.4 0 47.4z" p-id="1460"></path><path d="M233.7 791.1c-13-13-13-34.3 0-47.4l511.4-511.4c13-13 34.3-13 47.4 0 13 13 13 34.3 0 47.4L281.1 791.1c-13 13-34.3 13-47.4 0z" p-id="1461"></path></svg>