<?xml version="1.0" standalone="no"?><!DOCTYPE svg PUBLIC "-//W3C//DTD SVG 1.1//EN" "http://www.w3.org/Graphics/SVG/1.1/DTD/svg11.dtd"><svg t="1614048902615" class="icon" viewBox="0 0 1024 1024" version="1.1" xmlns="http://www.w3.org/2000/svg" p-id="1568" xmlns:xlink="http://www.w3.org/1999/xlink" width="128" height="128"><defs><style type="text/css"></style></defs><path d="M282.8 796.7c-11.3 0-21.9-4.4-29.8-12.3l-0.1-0.1c-10.5-11.1-14.6-26.8-10.8-41.7L300 526.3c0.5-1.5 1-2.7 1.8-3.8l0.5-0.7 0.3-0.8c0.4-1.1 1-2 1.8-2.7l0.3-0.3L784.2 28.8C801.9 11 826.5 0.7 851.7 0.7h1.2c29.8 0 59.5 12.9 81.5 35.4l53.1 54.1c22 22.5 34.6 52.7 34.6 82.9 0 26.9-9.8 51.8-27.6 70.1L514.4 732.4c-2.8 2.8-6.8 4.5-10.8 4.6h-0.9l-208.8 58c-3.4 1-7.1 1.6-11.1 1.7z m60-104.1l86.6-24.1-63-64.2-23.6 88.3z m88.4-173.5c-8.1 8.4-8.1 21.4 0 29.6l55.7 56.6c3.2 3.3 7.6 5.2 12.3 5.2 4.5 0 8.8-1.8 12.2-5L813 298l-81.9-84.8-299.9 305.9zM857.8 89.9c-3.6 0-7.2 1.4-10 3.9l-0.3 0.3-50.7 51.5 82.3 84.9 51.3-52.4c2.9-3 4.4-7 4.2-11v-0.2c-0.1-6-2.5-11.7-6.8-15.9l-53.4-54.5c-4.1-4.2-9.9-6.6-15.8-6.6h-0.8z" p-id="1569"></path><path d="M116.4 1020.5C52.7 1020.5 0.8 968.7 0.8 904.9V155.6C0.8 91.9 52.6 40 116.4 40h302.2l4.7 1c18.5 3.9 32 20.6 32 39.5 0 22.3-18.1 40.4-40.4 40.4H116.4c-19.2 0-34.7 15.6-34.7 34.7V905c0 19.2 15.6 34.7 34.7 34.7h754.1c19.2 0 34.7-15.6 34.7-34.7V606.7c0-22.3 18.1-40.4 40.4-40.4 22.3 0 40.4 18.1 40.4 40.4v298.2c0 63.7-51.8 115.6-115.6 115.6h-754z" p-id="1570"></path></svg>