<?xml version="1.0" standalone="no"?><!DOCTYPE svg PUBLIC "-//W3C//DTD SVG 1.1//EN" "http://www.w3.org/Graphics/SVG/1.1/DTD/svg11.dtd"><svg t="1662434148449" class="icon" viewBox="0 0 1024 1024" version="1.1" xmlns="http://www.w3.org/2000/svg" p-id="7285" xmlns:xlink="http://www.w3.org/1999/xlink" width="200" height="200"><path d="M1011.712 716.8V300.544l-217.6 217.088zM645.12 667.136c-35.328 35.84-83.456 55.808-134.144 55.296-50.688 0-98.304-19.968-134.144-55.296l-116.736-116.736L10.24 779.776v38.4c0 50.176 40.96 91.136 91.136 91.136h819.2c50.176 0 91.136-40.96 91.136-91.136V778.24l-249.344-228.352-117.248 117.248zM10.24 300.544v417.792l218.112-199.68z" p-id="7286"></path><path d="M922.624 128h-819.2c-50.176 0-90.624 40.96-90.624 91.136v18.944l398.848 398.848c27.136 27.136 63.488 41.984 101.888 41.984 38.4 0 74.752-14.848 101.888-41.984L1013.76 238.08v-18.944c0-50.176-40.96-91.136-91.136-91.136z" p-id="7287"></path></svg>