<?xml version="1.0" standalone="no"?><!DOCTYPE svg PUBLIC "-//W3C//DTD SVG 1.1//EN" "http://www.w3.org/Graphics/SVG/1.1/DTD/svg11.dtd"><svg t="1614841242830" class="icon" viewBox="0 0 1024 1024" version="1.1" xmlns="http://www.w3.org/2000/svg" p-id="1315" xmlns:xlink="http://www.w3.org/1999/xlink" width="128" height="128"><defs><style type="text/css"></style></defs><path d="M960.5 68.3h-896c-40.3 0-64 23-64 64v608c0 41 23.7 64 64 64h384v96h-192c-20.2 0-32 11.5-32 32v32h575.9v-32.2c0-20.5-11.8-32-32-32h-192V804h384c40.4 0 64-23 64-64V132.4c0.1-41-23.6-64.1-63.9-64.1zM475.9 719.5c0-20.5 16.3-37 36.5-37s36.5 16.7 36.5 37c0 20.5-16.3 37.2-36.5 37.2-20.2-0.2-36.5-16.7-36.5-37.2zM64.5 644.3V132.4h895.9v511.9H64.5z m0 0" p-id="1316"></path><path d="M184.2 253h657.3v270.8H184.2z" p-id="1317"></path></svg>