<?xml version="1.0" standalone="no"?><!DOCTYPE svg PUBLIC "-//W3C//DTD SVG 1.1//EN" "http://www.w3.org/Graphics/SVG/1.1/DTD/svg11.dtd"><svg t="1614220072193" class="icon" viewBox="0 0 1024 1024" version="1.1" xmlns="http://www.w3.org/2000/svg" p-id="1458" xmlns:xlink="http://www.w3.org/1999/xlink" width="128" height="128"><defs><style type="text/css"></style></defs><path d="M237.1 1011.1c-22.3 0-40.4-18.1-40.4-40.4V826.1H52.2c-22.3 0-40.4-18.1-40.4-40.4V473.9c0-22.3 18.1-40.4 40.4-40.4 22.3 0 40.4 18.1 40.4 40.4v271.4h658.9V86.5H480c-22.3 0-40.4-18.1-40.4-40.4 0-22.3 18.1-40.4 40.4-40.4h311.8c22.3 0 40.4 18.1 40.4 40.4v144.5h144.5c22.2 0.1 40.4 18.3 40.4 40.5v739.6c0 22.3-18.1 40.4-40.4 40.4H237.1z m40.2-80.6h659V271.4H832.1v514.5c0 22.3-18.1 40.4-40.4 40.4H277.3v104.2z" p-id="1459" fill="#ffffff"></path><path d="M416.2 476.2c-10.8 0-20.9-4.2-28.6-11.8-7.6-7.6-11.8-17.8-11.8-28.6s4.2-20.9 11.8-28.6l28.4-28.4h-73.1v0.1c-86.3-1.4-167.3-35.7-228.5-96.9C52 219.7 17.6 136.8 17.5 48.6c0-22.2 18.1-40.3 40.4-40.3 22.3 0 40.4 18.1 40.4 40.4 0.1 137.6 112.2 249.6 249.8 249.8H416L387.7 270c-7.6-7.6-11.8-17.8-11.8-28.6s4.2-20.9 11.8-28.6c7.6-7.6 17.8-11.8 28.6-11.8s20.9 4.2 28.6 11.8l97.2 97.3c15.6 15.7 15.6 41.3 0 57L445 464.4c-7.8 7.6-18 11.8-28.8 11.8z" p-id="1460" fill="#ffffff"></path></svg>