<?xml version="1.0" standalone="no"?><!DOCTYPE svg PUBLIC "-//W3C//DTD SVG 1.1//EN" "http://www.w3.org/Graphics/SVG/1.1/DTD/svg11.dtd"><svg t="1614133525963" class="icon" viewBox="0 0 1024 1024" version="1.1" xmlns="http://www.w3.org/2000/svg" p-id="1876" xmlns:xlink="http://www.w3.org/1999/xlink" width="128" height="128"><defs><style type="text/css"></style></defs><path d="M1011.5 673.8L898 542.9c-6.2-7.1-14.7-11.5-24.1-11.5-18.8 0-34.1 17.6-34.1 39.3 0 10.9 3.8 20.7 10 27.8l55.4 63.9H665.1c-1.1-0.1-2.3-0.1-3.4-0.2h-269c-21.7 0-39.2 17.6-39.2 39.2v0.3c0 21.7 17.6 39.2 39.2 39.2h512.5l-55.4 63.9c-6.1 7.1-10 16.9-10 27.8 0 21.7 15.2 39.3 34.1 39.3 9.4 0 17.9-4.4 24.1-11.5l113.5-131c6.2-7.1 10-16.9 10-27.8 0-10.8-3.8-20.7-10-27.8z m0 0" p-id="1877"></path><path d="M663.6 875.8c0 40.5-19.3 68.1-59.8 68.1H164.1c-40.6 0-83-22.8-83-63.4V146.8c0-40.6 28.1-66.2 68.7-66.2h293.9l-0.6 214.6h215.6v220.4l78.1-0.1V221.7L530.3 1.4H75.9C35.3 1.4 2.4 34.3 2.4 74.8V956c0 40.5 32.8 66.3 73.4 66.3h586.6c40.5 0 78.8-22.9 78.8-63.5l0.9-82.9-78.5-0.1zM511.3 81.4l150.1 150.1H511.3V81.4z m0 0" p-id="1878" fill="#ffffff"></path></svg>