<?xml version="1.0" standalone="no"?><!DOCTYPE svg PUBLIC "-//W3C//DTD SVG 1.1//EN" "http://www.w3.org/Graphics/SVG/1.1/DTD/svg11.dtd"><svg t="1614064165447" class="icon" viewBox="0 0 1024 1024" version="1.1" xmlns="http://www.w3.org/2000/svg" p-id="1984" xmlns:xlink="http://www.w3.org/1999/xlink" width="128" height="128"><defs><style type="text/css"></style></defs><path d="M244.7 1003.4V885.5h420.7c62.9 0 126.8-33.2 175.4-91.2 47.5-56.7 74.7-129.9 74.7-200.8 0-70.7-27.3-143.1-74.8-198.7-48.3-56.6-112.2-89-175.3-89H283.1V534L19.5 272 283.1 20.1v167.7h382.2c92.1 0 178.7 40 243.9 112.6 66.1 73.6 110.5 191.4 110.5 293.1 0 96.6-40.3 196.8-110.5 275-36 40.1-73.9 72.1-112.7 95.1-44.5 26.4-88.7 39.8-131.2 39.8H244.7z" p-id="1985"></path></svg>