<?xml version="1.0" standalone="no"?><!DOCTYPE svg PUBLIC "-//W3C//DTD SVG 1.1//EN" "http://www.w3.org/Graphics/SVG/1.1/DTD/svg11.dtd"><svg t="1619580158242" class="icon" viewBox="0 0 1024 1024" version="1.1" xmlns="http://www.w3.org/2000/svg" p-id="1710" xmlns:xlink="http://www.w3.org/1999/xlink" width="20" height="20"><defs><style type="text/css"></style></defs><path d="M512.4 1023.2c-69.1 0-136.1-13.5-199.1-40.2-60.9-25.8-115.6-62.7-162.6-109.6-47-47-83.9-101.7-109.6-162.6C14.3 647.7 0.8 580.7 0.8 511.6s13.5-136 40.2-199.1c25.8-60.9 62.7-115.6 109.6-162.6 47-47 101.7-83.9 162.6-109.6C376.3 13.5 443.3 0 512.4 0s136.1 13.5 199.2 40.2c60.9 25.8 115.6 62.7 162.6 109.6 47 47 83.9 101.7 109.6 162.6 26.7 63.1 40.2 130.1 40.2 199.1s-13.5 136.1-40.2 199.1c-25.8 60.9-62.7 115.6-109.6 162.6-47 47-101.7 83.9-162.6 109.6-63.2 26.9-130.2 40.4-199.2 40.4z m0-977.8c-257.1 0-466.2 209.2-466.2 466.2 0 257.1 209.2 466.2 466.2 466.2s466.2-209.2 466.2-466.2c0-257.1-209.1-466.2-466.2-466.2z" p-id="1711" fill="#ffffff"></path><path d="M512.4 456.5m-202.3 0a202.3 202.3 0 1 0 404.6 0 202.3 202.3 0 1 0-404.6 0Z" p-id="1712" fill="#ffffff"></path><path d="M445.8 999.9c-70-43.6-365.6-128.1-312.6-199.6 83.8-113.1 222.4-187 379.2-187 156.8 0 295.4 73.9 379.2 187 52.9 71.4-221.3 157.6-347.6 205.8" p-id="1713" fill="#ffffff"></path></svg>