<?xml version="1.0" standalone="no"?><!DOCTYPE svg PUBLIC "-//W3C//DTD SVG 1.1//EN" "http://www.w3.org/Graphics/SVG/1.1/DTD/svg11.dtd"><svg t="1662434163798" class="icon" viewBox="0 0 1024 1024" version="1.1" xmlns="http://www.w3.org/2000/svg" p-id="7421" xmlns:xlink="http://www.w3.org/1999/xlink" width="200" height="200"><path d="M512.512 269.312c-5.632 0-11.776 0.512-17.408 1.024v101.376c5.632-0.512 11.264-1.536 17.408-1.536 105.472 0 191.488 82.432 191.488 184.32 0 17.408-3.584 34.304-8.192 50.176h107.52c3.072-16.384 5.12-33.28 5.12-50.176-0.512-157.696-132.608-285.184-295.936-285.184z m0-201.216c-5.632 0-11.776 0.512-17.408 1.024v100.352c5.632 0 11.264-1.024 17.408-1.024 220.672 0 399.872 172.544 399.872 385.536 0 16.896-1.536 33.792-3.584 50.176h105.472c1.536-16.896 2.56-33.28 2.56-50.176 0-268.288-225.792-485.888-504.32-485.888zM695.808 752.64c-57.856-21.504-112.64-48.64-176.128 8.192-39.424 35.328-67.584 31.232-93.184 18.432-25.6-13.312-183.808-168.448-205.312-219.648-21.504-50.688-9.728-57.856 0-73.216s78.848-51.2 37.376-164.864c-41.472-113.152-73.728-198.144-242.688 0-17.408 20.48 0 109.568 0 109.568s118.784 374.784 522.24 530.432c62.464 24.064 204.288-14.336 261.12-109.568 28.16-46.592-12.8-66.048-103.424-99.328z" p-id="7422"></path></svg>