<?xml version="1.0" standalone="no"?><!DOCTYPE svg PUBLIC "-//W3C//DTD SVG 1.1//EN" "http://www.w3.org/Graphics/SVG/1.1/DTD/svg11.dtd"><svg t="1614677569387" class="icon" viewBox="0 0 1024 1024" version="1.1" xmlns="http://www.w3.org/2000/svg" p-id="1488" xmlns:xlink="http://www.w3.org/1999/xlink" width="128" height="128"><defs><style type="text/css"></style></defs><path d="M547.3 776.2c-25.4 0-49.2-11.9-64.5-30.5-3.4-6.8-6.8-13.6-11.9-18.7v-1.7c-13.6-15.3-33.9-23.8-54.3-23.8-37.3 0-69.5 28.8-72.9 64.5-6.8 13.6-20.4 23.8-37.3 23.8-15.3 0-28.8-8.5-35.6-20.4L174.1 900H700L596.5 759.2c-13.5 10.2-30.5 17-49.2 17z m0 0" p-id="1489"></path><path d="M576.2 423.4V284.3h1.7c27.1 0 50.9-22.1 50.9-50.9 0-27.1-22.1-50.9-50.9-50.9h-285c-27.1 0-50.9 22.1-50.9 50.9 0 27.1 22.1 50.9 50.9 50.9h5.1v139.1L30 806.7c-1.7 3.4-3.4 6.8-5.1 11.9C11.3 845.7 6.2 878 6.2 910.2c0 17 3.4 35.6 8.5 50.9 0 3.4 1.7 6.8 3.4 10.2l8.5 15.3c6.8 10.2 15.3 18.7 25.4 25.4 6.8 6.8 17 11.9 28.8 11.9h715.8c8.5 0 17-3.4 22.1-6.8 13.6-6.8 25.4-17 33.9-30.5l8.5-15.3c1.7-3.4 1.7-6.8 3.4-10.2 5.1-15.3 8.5-32.2 8.5-50.9 0-44.1-10.2-91.6-37.3-120.4L576.2 423.4z m181.5 520.7H118.2c-25.4-8.5-30.5-30.5-30.5-57.7 0-10.2 5.1-22 6.8-30.5l1.7-1.7L369.3 464c3.4-3.4 5.1-8.5 6.8-13.6 3.4-5.1 5.1-11.9 5.1-18.7V284.3h115.4v149.3c0 6.8 1.7 11.9 5.1 18.7 1.7 5.1 3.4 8.5 6.8 13.6l273.1 390.2c1.7 1.7 1.7 3.4 3.4 3.4 3.4 8.5 6.8 18.7 6.8 28.8-3.6 25.3-8.7 47.3-34.1 55.8z m-57.7-740h113.7v125.5c0 17 13.6 32.2 32.2 32.2 17 0 32.2-13.6 32.2-32.2V204.1h113.7c17 0 32.2-13.6 32.2-32.2 0-17-13.6-32.2-32.2-32.2H878.1V37.8c0-17-13.6-32.2-32.2-32.2-17 0-32.2 13.6-32.2 32.2v101.8H700c-17 0-32.2 13.6-32.2 32.2 0 17 13.5 32.3 32.2 32.3z m0 0" p-id="1490"></path></svg>