<?xml version="1.0" standalone="no"?><!DOCTYPE svg PUBLIC "-//W3C//DTD SVG 1.1//EN" "http://www.w3.org/Graphics/SVG/1.1/DTD/svg11.dtd"><svg t="1614679444870" class="icon" viewBox="0 0 4726 1024" version="1.1" xmlns="http://www.w3.org/2000/svg" p-id="1485" xmlns:xlink="http://www.w3.org/1999/xlink" width="590.75" height="128"><defs><style type="text/css"></style></defs><path d="M827.865 970.437h-560.05c-158.326 0-237.883-84.283-237.883-252.85V316.653c0-168.566 79.557-252.849 237.883-252.849h668.751l-29.144 19.692c-59.077 40.173-94.524 105.551-94.524 174.08h-351.31c-79.557 0-118.942 42.536-118.942 126.819v264.664c0 84.284 39.385 126.819 118.942 126.819h366.277v194.56z" p-id="1486"></path><path d="M1661.243 258.363h-415.901c-66.954 0-100.825 25.994-100.825 77.982 0 51.987 33.87 77.981 100.825 77.981h207.95c158.326 0 237.883 84.283 237.883 252.062v49.624c0 169.354-79.557 253.637-237.883 253.637H883.791V775.877h445.834c66.953 0 100.824-25.994 100.824-77.982 0-51.987-33.87-77.981-100.824-77.981h-207.951c-158.326 0-237.883-84.283-237.883-252.85V317.44c0-168.566 79.557-252.85 237.883-252.85h539.57v193.773z m1073.625 712.074h-312.714V485.218l-181.957 363.914-180.382-363.914v485.219l-304.837-0.788V63.803h304.837l181.17 364.702 181.169-364.702h312.714v906.634z m519.877-654.572l-157.539 654.572H2792.37l278.056-906.634h369.427l278.056 906.634H3413.07l-158.326-654.572z" p-id="1487"></path><path d="M3253.957 823.138l-83.495 145.724h166.99zM4593.034 502.548l-0.788-233.945c0-114.215-98.461-205.588-219.766-205.588l-589.982 0.788v905.059h305.625V259.938h152.025c55.138 0 99.249 42.536 98.461 93.736l-0.787 56.714c-0.788 48.049-42.536 86.646-93.736 86.646h-112.64v179.594l261.514 293.021h303.262L4408.714 675.84c101.612 0 184.32-77.194 184.32-173.292z" p-id="1488"></path></svg>