<?xml version="1.0" encoding="utf-8"?>
<!-- Generator: Adobe Illustrator 21.0.0, SVG Export Plug-In . SVG Version: 6.00 Build 0)  -->
<svg version="1.1" id="图层_1" xmlns="http://www.w3.org/2000/svg" xmlns:xlink="http://www.w3.org/1999/xlink" x="0px" y="0px"
	 viewBox="0 0 200 200" style="enable-background:new 0 0 200 200;" xml:space="preserve">
<style type="text/css">
	.st0{fill:#FFFFFF;}
</style>
<g>
	<path class="st0" d="M36.2,119H12.8c-6.6,0-10-3.5-10-10.6V91.6c0-7.1,3.3-10.6,10-10.6h28l-1.2,0.8c-2.5,1.7-4,4.4-4,7.3l0,0H20.9
		c-3.3,0-5,1.8-5,5.3v11.1c0,3.5,1.7,5.3,5,5.3h15.4V119z"/>
	<path class="st0" d="M71.2,89.2H53.7c-2.8,0-4.2,1.1-4.2,3.3c0,2.2,1.4,3.3,4.2,3.3h8.7c6.6,0,10,3.5,10,10.6v2.1
		c0,7.1-3.3,10.6-10,10.6H38.6v-8.1h18.7c2.8,0,4.2-1.1,4.2-3.3c0-2.2-1.4-3.3-4.2-3.3h-8.7c-6.6,0-10-3.5-10-10.6v-2.1
		c0-7.1,3.3-10.6,10-10.6h22.6V89.2z"/>
	<path class="st0" d="M116.1,119H103V98.7l-7.6,15.2l-7.6-15.2V119l-12.8,0l0-6.1V89.2V81h12.8l7.6,15.3L103,81h13.1V119z"/>
	<path class="st0" d="M137.9,91.6l-6.6,27.4h-12.8l11.6-38h15.5l11.6,38h-12.8L137.9,91.6z"/>
	<polygon class="st0" points="137.9,112.8 134.4,119 141.4,119 	"/>
	<path class="st0" d="M194,99.4l0-9.8c0-4.8-4.1-8.6-9.2-8.6L160,81v8.2V119h12.8V89.2h6.4c2.3,0,4.1,1.8,4.1,3.9l0,2.4
		c0,2-1.8,3.6-3.9,3.6h-4.7v7.5l11,12.3h12.7l-12-12.3C190.5,106.7,194,103.4,194,99.4z"/>
</g>
</svg>
