<?xml version="1.0" standalone="no"?><!DOCTYPE svg PUBLIC "-//W3C//DTD SVG 1.1//EN" "http://www.w3.org/Graphics/SVG/1.1/DTD/svg11.dtd"><svg t="1619430961408" class="icon" viewBox="0 0 1024 1024" version="1.1" xmlns="http://www.w3.org/2000/svg" p-id="1587" xmlns:xlink="http://www.w3.org/1999/xlink" width="20" height="20"><defs><style type="text/css"></style></defs><path d="M580.8 2.5L0 0l1024 1024V445.7z" fill="#FF4747" p-id="1588"></path><path d="M450.4 296.8c19.7 19.7 28.6 16.6 60.2-9.9 1.1 6.1 4.9 14.3 8.1 19-36.5 29.6-52.2 33.4-81.7 4l-67.6-67.6c-28.9-28.9-32.9-43-10.7-65.2l90.4-90.4 13.6 13.6-29.6 29.6 94.3 94.3 47.3-47.3L457.3 59.3l13.2-13.2 131.2 131.2-82.8 82.8-13.7-13.7 9-9-94.3-94.4-47.7 47.7c-11.4 11.4-9.9 17.9 9.6 37.4l68.6 68.7zM625.7 358.6l-30.5-16.4-51 51c-7.6 7.6-13 9.4-19.9 6.5-6.7-2.3-14.5-9.4-26.9-21.9 2.9-4 6.5-11.2 8.3-16.6 8.3 9 16.3 16.6 18.4 18.8 2.5 2.5 4.3 2.5 6.9 0l46.8-46.8c-10.8-5.8-21-11.6-30-16.3l9.2-17.2c9.2 6 21 12.7 34.2 20.1l38.9-38.9-25-24.9 12.7-12.6 24.9 24.9 36.1-36.1 13.2 13.2-36.1 36.1 21.3 21.3-12.6 12.6-21.3-21.3-35.3 35.2 28.4 15.4-10.7 13.9z m45.7 156.3l-13.2 13.2-95.4-95.4 148.5-148.5 91.1 91.1-13.2 13.2-77.3-77.3-28.2 28.2 68.1 68.1-60.4 60.4-68.1-68.1-33.6 33.6 81.7 81.5z m-0.3-163l-35.2 35.2 55.5 55.5 35.2-35.2-55.5-55.5zM692.6 527.8c19.3 12.8 49.7 32 79.2 50.6l-9.9 12.5c-28.6-17-57.6-34.9-79.7-47.9l10.4-15.2z m112.2 15.3c-4 3.3-9 8.3-11.4 11.4-59.3-39.4-67.4-44.3-73.6-45.7 1.8-3.3 5.8-11.2 7.8-16.1 4.5 3.1 13.2 3.1 26 2.2 6.9-0.4 23.7-2 43.9-5.6-26.2-19.7-31.4-23.1-35.4-24.6 2-3.4 6.3-11.7 8.1-16.8 4 2.5 11.9 1.4 22-0.7 10.5-1.4 47.9-11.4 78.1-25.7l6.9 18.1c-28 10.7-59.3 19.9-86.2 24l26.7 21.7c10.1-2.2 20.8-4.5 30.5-7.8l4.3 17.7c-32 7.8-65.4 13-95.8 15.2l48.1 32.7z m18.8 133.7c9.9 9.9 15.7 7.4 36.3-11 0.9 5.2 4 12.3 7 16.8-25.7 21.7-36.7 24.8-54.6 6.9l-43.2-43.2c-19.3-19.3-21.1-29.8-3.8-47.2l81.1-81.1c-2.7 0.2-5.1 0.4-7.6 0.4 0-4.3-0.7-13.7-1.8-18.4 28.2 0.4 62.5-8 91.8-21.7l8.9 15.7c-7.4 3.4-15.5 6.9-23.5 9.4l33.4 33.4 3.4 1.6 2.3 14.3c-13.9 4.5-30.2 8.5-44.3 10.7l28.6 28.6-56.6 56.6-70.1-70.1-33.3 33.3c-8 8-7.6 11.9 4 23.5l42 41.5z m-0.7-110.2l23 23 33.1-33.1-23-23-33.1 33.1z m90.5 24.4l-22.8-22.8-33.1 33.1 22.8 22.8 33.1-33.1z m-16.8-81.9c-11.7 3.1-23.3 5.6-34.3 7.2l33.6 33.6v-0.4c9.6-1.3 22.4-4.3 33.3-8l-32.6-32.4z" fill="#FFFFFF" p-id="1589"></path></svg>