<?xml version="1.0" standalone="no"?><!DOCTYPE svg PUBLIC "-//W3C//DTD SVG 1.1//EN" "http://www.w3.org/Graphics/SVG/1.1/DTD/svg11.dtd"><svg t="1619586542683" class="icon" viewBox="0 0 1025 1024" version="1.1" xmlns="http://www.w3.org/2000/svg" p-id="1566" xmlns:xlink="http://www.w3.org/1999/xlink" width="20.01953125" height="20"><defs><style type="text/css"></style></defs><path d="M581.8 2.5L1 0l1024 1024V445.7z" fill="#FF4747" p-id="1567"></path><path d="M447.4 277.8c18.6 18.6 26.2 16.8 55.1-6.7 2.2 9 8.3 22.4 13.4 30-38.1 29.8-56 31.8-88.9-1.1l-59.8-59.8c-34.9-34.9-38.7-52.4-11.4-79.7L440 76.3l22.2 22.2-24.6 24.6 82 82 38.5-38.5L446.7 55.1 468 33.8l133.9 133.9-89.5 89.5-22.4-22.4 8.5-8.5-82-82-38.5 38.4c-11.2 11.2-9.6 16.1 10.3 36l59.1 59.1zM597.1 411.5l-34 34-21-21 30.2-30.2c-20.8-14.6-40.5-28.6-56.7-40.5l16.1-24.4c3.8 3.1 8.5 6.7 13.4 10.5l98.3-98.3-9.9-9.9 19.2-19.2 82.2 82.2-19.2 19.2-10.5-10.5-89.5 89.5 15.9 11.9-16.8 19-17.7-12.3z m-5.5-36.5l17.9-17.9-20.2-20.2-20.8 20.8 23.1 17.3z m208.6 13.7c-43.7 35.8-84.2 58.9-123.1 71-5.1 22-5.6 43.6-0.5 64.5-8.3-1.1-22.4 0-31.3 2-3.4-19.7-3.1-39.2 0.7-59.6-22 3.6-43.4 2.9-64.3-1.1 2.2-8.3 3.4-21.5 2.7-29.5 21.5 5.2 45.2 4.7 70.1-0.7 11.6-32.9 31.4-66.5 56-101.2l-6.3-6.3 20.2-20.2 61.4 61.4 4.3 2.9 10.1 16.8z m-192.7-70.1l20.2 20.2 19.7-19.7-20.2-20.2-19.7 19.7z m56.4-56.4l-18.4 18.4 20.2 20.2 18.4-18.4-20.2-20.2z m65.4 90.7c-16.6 23.9-30.7 47.7-40.7 71.4 23.5-9.4 47.5-23 71.6-40.5l-30.9-30.9zM697.2 551c22.8-4.7 57.8-15.2 88.7-26.6l2.9 28.9c-27.6 11-58.4 21.9-86.4 30.4l-5.2-32.7z m163 145.3c-10.5 10.5-17.9 14.3-28 10.7-10.1-3.3-20.1-12.8-33.6-26.4 5.1-6.5 11-18.3 13.7-26.7 7.8 8.9 17.2 18.3 20.1 21.1 2.9 2.5 4.7 2.5 7 0.2l11.9-11.9-54.8-54.8-35.2 35.2-21.1-21.1 118.2-118.2 38.3 38.3 50.2-50.2 21.7 21.7-50.2 50.2 36.9 36.9-95.1 95z m-68-185.4c0.2-13.6-4.7-37.2-10.1-54.6l27.3-3.1c6 16.4 11.9 39.8 12.5 53.7l-29.7 4z m77.2 134.2l13.6-13.6-54.8-54.8-13.6 13.6 54.8 54.8z m-3.8-230.7c6.1 16.3 11.6 39 11.7 53l-30 3.3c0.5-13.2-4.2-36.7-9.2-53.7l27.5-2.6z m-6.1 131.2l-13.2 13.2 54.8 54.8 13.2-13.2-54.8-54.8z m13-34c6.7-11 13.7-32.2 17.2-49.7l26 10.1c-2.7 17.2-8.1 38.1-14.8 50.2l-28.4-10.6z m129.4 58.9c-18.4 6.9-38.1 12.8-52.2 15.7L938 560.7c14.6-3.8 36-11.4 50.4-18.6l13.5 28.4z" fill="#FFFFFF" p-id="1568"></path></svg>