<?xml version="1.0" standalone="no"?><!DOCTYPE svg PUBLIC "-//W3C//DTD SVG 1.1//EN" "http://www.w3.org/Graphics/SVG/1.1/DTD/svg11.dtd"><svg t="1619431925358" class="icon" viewBox="0 0 1024 1024" version="1.1" xmlns="http://www.w3.org/2000/svg" p-id="1474" xmlns:xlink="http://www.w3.org/1999/xlink" width="20" height="20"><defs><style type="text/css"></style></defs><path d="M580.8 2.5L0 0l1024 1024V445.7z" fill="#FF9900" p-id="1475"></path><path d="M537.3 234.5L523 248.8l21.3 21.3-19.5 19.5-21.3-21.3-36.9 36.9c-10.8 10.8-18.1 14.1-28.6 10.1-10.1-4-20.6-13.7-34.2-27.3 5.1-6.9 10.5-18.4 13.6-26.9 8.5 9.2 18.4 19.2 21.5 21.9 2.7 2.7 4.2 3.1 6.7 0.5l36.5-36.5-69.9-69.9 19.5-19.5 69.9 69.9 14.3-14.3-71.7-71.7 17-17c-6.5 1.1-13 2.2-20.1 3.1l-98.7 98.7-20.6-20.6 75-75c-11.2 0-21.5-0.5-31.3-1.6 3.4-6.3 10.1-23.9 12.3-32.2 26.9 4.5 62.2 4.3 89.8-3.1l10.7 26.9c-4.2 0.9-8.5 2-13 2.9l45.5 45.5 15.7-15.7-37-37L509 96.9l37 37 19.7-19.7 21.3 21.3-19.7 19.7 38.9 38.9-19.5 19.5-38.9-38.9-15.7 15.7 47.5 47.5-19.5 19.5-22.8-22.9z m-98.5-28.7c-1.1 17.3-4.5 39.2-9.6 51.9l-28.9-8.7c5.4-11.9 9.9-34.2 11.7-51.5l26.8 8.3z m75.9-127.2c-28.6 4.7-64.5 4.2-92.2-1.8 2.7-7 6.3-20.8 7.6-28.9 22.8 5.8 53.1 6.5 72.5 2l12.1 28.7zM694 355.4l55.7 55.7-89 88.9-21.9-21.9 7.4-7.4-33.8-33.8-29.4 29.5-22.4-22.4 29.5-29.5-34.3-34.3-8.3 8.3-20.8-20.8 89.8-89.8 55.1 55.1 15.2-15.2 22.4 22.4-15.2 15.2z m-85.3 40.5l13.2-13.2-34.3-34.3-13.2 13.2 34.3 34.3z m9.9-78.6l-13.2 13.2 34.3 34.3 13.2-13.2-34.3-34.3z m181.6 63.8l-33.8 33.8-22.6-22.6 13.4-13.4-110-110-13.4 13.4-21.3-21.3 33.8-33.8 66.9 66.9c2.9-6.1 5.6-12.8 7.8-18.6l28.6 16.3c-2.9 9-7 21.1-10.5 28.2l61.1 61.1z m-135.3 71l13.2-13.2-33.8-33.8-13.2 13.2 33.8 33.8z m10.4-78.1l-13.2 13.2L696 421l13.2-13.2-33.9-33.8zM793 551.3c3.3-6.9 7-17.2 10.7-27.6l-81.9 81.9-20.6-20.6 66.5-66.5c-18.1 8.7-35.6 15.7-49.9 18.4 4.2-8.1 9.2-22.6 11.4-32 25.1-3.1 60-18.8 86.9-35.2L794.4 448l19.9-19.9 21.9 21.9 33.8-33.8 20.6 20.6-33.6 33.6 18.1 18.1-20.1 20-18.1-18.1-5.8 5.8c-1.6 11.7-9.2 45-11.2 53.1l-26.9 2z m126.7 102.1c-19.3 4.9-39.8 6.9-60.7 6.5 2.3 19.3 4.2 41.7 3.8 55.8l-30.5-2.7c1.4-13.4 0.7-35.8-1.3-55.8-29.1-4.5-58.6-13.7-87.3-29.1 2.3-7.8 4.9-22.2 5.6-30.9 54 30.9 112.9 39.9 156.1 26l14.3 30.2z m23.1-48c-46.3 12.3-101 9.9-150.5-8.9 2-7.4 4.3-20.6 4.5-28.4 23.3 9.9 48.4 15.5 72.1 16.8-29.1-25.1-36.1-30-41.6-32.2 4.3-5.8 11.4-18.6 14.3-24.8 5.2 3.4 13.2 8.5 20.2 8.3 6.1-0.4 23.9-4.3 38.5-7.8l-30-30 19.5-19.5 42.3 42.3c4.2-7 8-15.5 10.7-23.3l26.4 14.1c-3.3 11.2-8.5 24-13.7 32.5l36.7 36.7-19.5 19.5L923 551c-14.1 3.3-29.8 7-43.7 9.8l25.1 23c8.7-1.4 17.3-3.3 24.9-5.8l13.5 27.4z" fill="#FFFFFF" p-id="1476"></path></svg>