<?xml version="1.0" standalone="no"?><!DOCTYPE svg PUBLIC "-//W3C//DTD SVG 1.1//EN" "http://www.w3.org/Graphics/SVG/1.1/DTD/svg11.dtd"><svg t="1619577931079" class="icon" viewBox="0 0 1025 1024" version="1.1" xmlns="http://www.w3.org/2000/svg" p-id="1680" xmlns:xlink="http://www.w3.org/1999/xlink" width="20.01953125" height="20"><defs><style type="text/css"></style></defs><path d="M581.8 2.5L1 0l1024 1024V445.7z" fill="#C4C4C4" p-id="1681"></path><path d="M447.4 277.8c18.6 18.6 26.2 16.8 55.1-6.7 2.2 9 8.3 22.4 13.4 30-38.1 29.8-56 31.8-88.9-1.1l-59.8-59.8c-34.9-34.9-38.7-52.4-11.4-79.7L440 76.3l22.2 22.2-24.6 24.6 82 82 38.5-38.5L446.7 55.1 468 33.8l133.9 133.9-89.5 89.5-22.4-22.4 8.5-8.5-82-82-38.5 38.4c-11.2 11.2-9.6 16.1 10.3 36l59.1 59.1zM572.7 375.5c1.1 4.7 2.3 10.3 4.2 16.8 5.2 19.3 21 37.2 40.8 57.1 18.8 18.8 49.9 46.6 70.8 61.8-9 3.6-23.9 11.2-30.5 17.2-13.4-11.6-43.9-39.9-62.3-58.4-23-23-36.1-40.5-42.1-60.9-4.2-12.8-4.7-24.9-8.7-28.9-5.2-5.2-25.3-1.1-42.3 3.3l6.7-37c17.3-0.4 33.1 1.6 44.3 6l39.9-39.9-21-21 20.1-20.1 42.1 42.1-62 61.9z m154.8-0.2l-67-67 20.2-20.2 67 67 29.6-29.6 21.9 21.9-29.6 29.6 22.2 22.2-20.2 20.2-22.2-22.2-59.3 59.3c-12.5 12.5-21 15.5-32.3 10.7-11.2-4.3-24.2-16.3-41-33.1 5.4-7.2 11.7-20.1 14.6-29.1 11 12.1 24 25.1 27.6 28.7 4 3.6 6.3 3.8 9.4 0.7l59.1-59.1z m-52.6-37c-1.4 19.5-4.5 45.7-9 60.7l-29.6-7.2c5.1-14.5 9.4-40.8 11.9-61.1l26.7 7.6z m-35.7-56.4c4-13.7 6.1-38.7 5.8-57.8l27.8 5.4c0.9 19 0.5 43.6-3.3 57.8l-30.3-5.4zM756.1 568c-19.5 6.9-44.3 10.3-62.9 9.4-0.2-7.8-2.3-22.2-4.3-30 16.4 2.3 37.2 0.4 53.1-5.4l14.1 26z m53.5 39l-88.7-88.7 18.8-18.8 16.3 16.3 67-67-14.1-14.1 18.8-18.8 14.1 14.1 19.2-19.2 19.3 19.3-19.2 19.2 22.4 22.4 19.2-19.2 19.7 19.7-19.2 19.2 12.3 12.3-18.8 18.8-12.3-12.3-67 67 11 11-18.8 18.8z m55.3 93.3c-10.7 10.7-18.3 14.3-28 11.4s-19.5-11.6-32.7-25.1c4.9-6.3 11.6-18.4 14.3-26.6 7.2 8.3 16.1 16.8 18.6 19.3 2.7 2.7 4.5 2.7 7.4-0.2l35.6-35.6-27.5-27.5c-23.3 19.3-50.4 37.4-76.4 43.9 0.4-7.2-2-22.6-4.9-29.1 1.6-0.5 3.3-0.7 4.9-1.3l-23.5-6.5c3.4-10.7 6.7-31.3 8-46.6l25.1 7.4c-0.7 13.7-2.2 32.2-5.1 44.1 33.1-12.1 64.5-41.7 88-65.2l66.3-66.3 66.9 66.9-137 137z m-89.7-165.2l22.4 22.4 12.3-12.3-22.4-22.4-12.3 12.3z m28.8-28.7l22.4 22.4 11.4-11.4-22.4-22.4-11.4 11.4z m38.3-38.4l-10.5 10.5 22.4 22.4 10.5-10.5-22.4-22.4z m56.9 156.4l22.2-22.2-26-26-6.7 6.7c-4.7 4.7-9.9 9.9-15.7 15.4l26.2 26.1z m36.3-88.4l-21.1 21.1 26 26 21.1-21.1-26-26z" fill="#FFFFFF" p-id="1682"></path></svg>