<?xml version="1.0" standalone="no"?><!DOCTYPE svg PUBLIC "-//W3C//DTD SVG 1.1//EN" "http://www.w3.org/Graphics/SVG/1.1/DTD/svg11.dtd"><svg t="1614219416080" class="icon" viewBox="0 0 1027 1024" version="1.1" xmlns="http://www.w3.org/2000/svg" p-id="2854" xmlns:xlink="http://www.w3.org/1999/xlink" width="128.375" height="128"><defs><style type="text/css"></style></defs><path d="M664.5 143.9V80.4c0-18.1-18.1-36.2-36.2-36.2-18.2 0-36.2 18.1-36.2 36.2v63.5h72.4m-436.4 0V80.4c0-18.1-18.1-36.2-36.2-36.2-18.2 0-36.2 18.1-36.2 36.2v63.5h72.4m617.7 438c-99.9 0.3-180.9 81.3-181.2 181.2 0.3 100 81.3 181 181.3 181.3 99.9-0.4 180.9-81.3 181.2-181.3-0.4-100-81.4-180.9-181.3-181.2m117.7 135.9L836.7 844.7c-9 9-9 9-18.2 9-9 0-9 0-18.1-9L737 772.2c-9.1-10.4-9.1-25.9 0-36.2 9-9 27.1-9 36.2 0l54.4 54.3 108.8-108.7c9-9 29.8-11.1 36.2 0 3.9 6.7 0 27.1-9.1 36.2" p-id="2855" ></path><path d="M601.1 765.1c-0.3-62.8 25.4-123.1 71.4-167.5 46-44.4 108.4-69.2 173.4-68.9v-324c0-35.1-27.1-61.4-63.4-61.4h-118v70c0 17.5-18.1 35-36.2 35s-36.2-17.5-36.2-35v-70.2H229.5v61.3c0 17.5-18.2 35.1-36.3 35.1-18.1 0-36.2-17.5-36.2-35.1v-61.3H66.4C30.1 143.2 3 169.4 3 204.5v692c0 35 27.1 61.3 63.4 61.3h661.5c-72.4-26.2-126.8-105.1-126.8-192.7M66.4 379.7c0-17.5 18.1-35.1 36.2-35.1h652.6c18.1 0 36.2 17.5 36.2 35.1 0 17.5-18.1 35-36.2 35H93.5c-18.1-8.7-27.1-17.5-27.1-35m362.4 464.2H147.9c-18.1 0-36.2-17.5-36.2-35s18.1-35 36.2-35h281c18.1 0 36.2 17.5 36.2 35-3.5 26.2-18.1 35.1-36.2 35.1m0.1-192.8H148c-18.1 0-36.2-17.5-36.2-35s18.1-35 36.2-35h281c18.1 0 36.2 17.5 36.2 35-4.8 26.3-18.2 35-36.2 35" p-id="2856" ></path></svg>