<?xml version="1.0" standalone="no"?><!DOCTYPE svg PUBLIC "-//W3C//DTD SVG 1.1//EN" "http://www.w3.org/Graphics/SVG/1.1/DTD/svg11.dtd"><svg t="1619431945769" class="icon" viewBox="0 0 1025 1024" version="1.1" xmlns="http://www.w3.org/2000/svg" p-id="1617" xmlns:xlink="http://www.w3.org/1999/xlink" width="20.01953125" height="20"><defs><style type="text/css"></style></defs><path d="M581.8 2.5L1 0l1024 1024V445.7z" fill="#58D891" p-id="1618"></path><path d="M447.4 277.7c18.6 18.6 26.2 16.8 55.1-6.7 2.2 9 8.3 22.4 13.4 30-38.1 29.8-56 31.8-88.9-1.1l-59.8-59.8c-34.9-34.9-38.7-52.4-11.4-79.7L440 76.2l22.2 22.2-24.6 24.6 82 82 38.5-38.5L446.7 55.1 468 33.7l133.9 133.9-89.5 89.5-22.4-22.4 8.5-8.5-82-82-38.5 38.5c-11.2 11.2-9.6 16.1 10.3 36l59.1 59zM568.5 378.6c0.9 4.5 1.8 10.1 3.6 16.6 4.9 19 19.9 36.1 39.4 55.7s51.1 47.9 72.5 64.2c-7.8 3.1-20.4 9.6-26.4 14.8-14.6-13.2-45.7-42.1-64.9-61.3-22.6-22.6-35.2-39.2-40.7-58.7-2.9-11.6-3.4-23-7.4-26.9-5.4-5.4-24.9-3.6-43.6-0.2l4.9-31.3c16.1-0.2 31.1 1.8 42.5 6l43-43-22.8-22.8 19.9-19.9 43.4 43.4-63.4 63.4z m29.8 41.7L578 400.1l93.1-93.1 39.4 39.4c-4.9-12.8-9.9-25.8-14.6-37l25.3 2.5c4.3 9.4 9.4 21.3 14.1 32.9 8.3 2.2 17 4 25.3 5.1L696 285.3l16.3-16.3 82.9 82.9 5.4 3.3 2.3 23c-17.7-0.4-38.7-2.9-57.8-7.6 1.8 5.1 3.3 10.1 4.5 14.3h-0.7l24.2 24.2-74.5 74.5c-8.9 8.9-14.8 11.6-23.5 8.7-8.7-2.5-16.6-10.5-27.3-21.1 4.3-6.1 9-15.2 11.4-22.2 5.6 6 11.7 12.1 13.6 13.9 2.3 2 3.6 1.8 5.4 0l8.3-8.3-21.3-21.3-26.4 26.4-19.2-19.2 26.4-26.4-20.8-20.8-26.9 27z m42.6-133.4c2-15 0.7-42.3-0.5-62.3l27.3 1.6c2.3 19 4.5 46.4 3.6 61.4l-30.4-0.7z m20.8 111.5l10.1-10.1-20.8-20.8-10.1 10.1 20.8 20.8z m14.1-55.6l-9.8 9.8 20.8 20.8 9.8-9.8-20.8-20.8z m26.4 96.1l10.1-10.1-21.3-21.3-10.1 10.1 21.3 21.3z m34.9-34.9l-21.3-21.3-9.8 9.8 21.3 21.3 9.8-9.8zM762.4 565.2c1.1 4.7 2.3 10.3 4.2 16.8 5.2 19.3 21 37.2 40.8 57.1 18.8 18.8 49.9 46.6 70.8 61.8-9 3.6-23.9 11.2-30.5 17.2-13.4-11.6-43.9-39.9-62.3-58.4-23-23-36.1-40.5-42.1-60.9-4.2-12.8-4.7-24.9-8.7-28.9-5.2-5.2-25.3-1.1-42.3 3.3l6.7-37c17.4-0.4 33.1 1.6 44.3 6l39.9-39.9-21-21 20.1-20.1 42.1 42.1-62 61.9z m154.8-0.1l-67-67 20.2-20.2 67 67 29.6-29.6 22 21.7-29.6 29.6 22.2 22.2-20.2 20.2-22.2-22.2-59.3 59.3c-12.5 12.5-21 15.5-32.3 10.7-11.2-4.3-24.2-16.3-41-33.1 5.4-7.2 11.7-20.1 14.6-29.1 11 12.1 24 25.1 27.6 28.7 4 3.6 6.3 3.8 9.4 0.7l59-58.9zM864.7 528c-1.4 19.5-4.5 45.7-9 60.7l-29.6-7.2c5.1-14.5 9.4-40.8 11.9-61.1l26.7 7.6z m-35.8-56.4c4-13.7 6.1-38.7 5.8-57.8l27.8 5.4c0.9 19 0.5 43.6-3.3 57.8l-30.3-5.4z" fill="#FFFFFF" p-id="1619"></path></svg>