<?xml version="1.0" standalone="no"?><!DOCTYPE svg PUBLIC "-//W3C//DTD SVG 1.1//EN" "http://www.w3.org/Graphics/SVG/1.1/DTD/svg11.dtd"><svg t="1614331310899" class="icon" viewBox="0 0 1024 1024" version="1.1" xmlns="http://www.w3.org/2000/svg" p-id="1458" xmlns:xlink="http://www.w3.org/1999/xlink" width="128" height="128"><defs><style type="text/css"></style></defs><path d="M624.6 797.2c-0.1-0.1-0.3-0.3-0.5-0.6l-40-65.9c-0.1-0.2-0.1-0.4-0.2-0.6l0.1-0.1h51.8l-63.2-109.2 0.2-0.2 37.9-68.7c0.1 0.1 0.2 0.2 0.3 0.4l112.4 194.2c4.6 8 5.8 17.1 3.3 25.6-2.5 8.9-8 15.9-15.9 20.5-5.1 3-10.9 4.6-16.5 4.6h-69.7z m-145.4-373c0.2-0.3 0.3-0.6 0.5-0.8l0.5-0.8c6.3-9.2 16.7-14.7 28-14.7 5.8 0 11.5 1.5 16.6 4.3 4.9 2.6 9.1 6.9 12.3 12.4l34.7 60.2c0.1 0.3 0.1 0.9 0 1.2l-37.4 67.8c-0.1-0.1-0.2-0.2-0.3-0.4l-26-44.5-63.1 109c-0.2 0.3-0.4 0.4-0.5 0.5l-77.9 1.1 112.6-195.3z" p-id="1459"></path><path d="M285.5 1012c-26 0-51-10.1-70.2-28.4-19.4-18.5-31.6-44-34.5-71.9l-62.2-598.3H41.7c-18.5-1.9-32.1-17.8-30.9-36.2 1.2-16.3 14.4-29.6 30.8-31h218.1l0.9-9.7c5.7-59.6 33.5-115.2 78.1-156.6 46-42.7 105.9-66.2 168.5-66.2 6.2 0 12.4 0.2 18.5 0.7 58 4.1 113.2 28.8 155.3 69.7 42.1 40.8 68.5 95 74.3 152.5l1 9.6h217.1c18.5 0.9 33.2 16.8 32.8 35.5-0.8 17.1-14.4 30.7-31.7 31.7h-77.1l-61.7 598.3c-6 57.2-51 100.3-104.7 100.3H285.5z m-38.6-108v0.4c1.5 19.8 17.6 35.3 37.6 36.1h445.8c20.2-0.7 36-15.9 37.6-35.9L829.2 314H185.6l61.3 589.6v0.4zM508 80.6c-89.9 0-165.3 64.5-179.5 153.3l-2 12.4h362.2l-1.9-12.3c-13.4-88.7-88.5-153.2-178.5-153.4h-0.3z" p-id="1460"></path><path d="M321.6 797.8c-8.8 0-17.2-3.5-23.6-10-6.4-6.4-10-14.8-10-23.6 0-5.5 1.6-11.5 4.7-17.2l34.7-60.1c0.2-0.3 0.4-0.4 0.5-0.5l78-1.1c0.1 0 0.4 0.2 0.6 0.3l-26.3 45h126.6c0.1 0.1 0.3 0.3 0.5 0.6l39.4 65.9c0.1 0.2 0.1 0.4 0.2 0.6l-0.1 0.1H321.6z" p-id="1461"></path></svg>