<?xml version="1.0" standalone="no"?><!DOCTYPE svg PUBLIC "-//W3C//DTD SVG 1.1//EN" "http://www.w3.org/Graphics/SVG/1.1/DTD/svg11.dtd"><svg t="1658742994072" class="icon" viewBox="0 0 1024 1024" version="1.1" xmlns="http://www.w3.org/2000/svg" p-id="10656" xmlns:xlink="http://www.w3.org/1999/xlink" width="200" height="200"><defs><style type="text/css">@font-face { font-family: feedback-iconfont; src: url("//at.alicdn.com/t/font_1031158_u69w8yhxdu.woff2?t=1630033759944") format("woff2"), url("//at.alicdn.com/t/font_1031158_u69w8yhxdu.woff?t=1630033759944") format("woff"), url("//at.alicdn.com/t/font_1031158_u69w8yhxdu.ttf?t=1630033759944") format("truetype"); }
</style></defs><path d="M901.9 126.5H124.2c-14.4 0-26.2 11.3-26.2 25.4v157l39.3 38V177.2c0-7 5.8-12.7 13.1-12.7h725.3c7.2 0 13.1 5.7 13.1 12.7v463.3c0 7-5.8 12.7-13.1 12.7h-421L710.4 900h129.7c7.2 0 13.1-5.7 13.1-12.7v-25.4c0-7-5.9-12.7-13.1-12.7H672.9v-158h229c14.4 0 26.2-11.4 26.2-25.4v-514c0-14-11.8-25.3-26.2-25.3z" p-id="10657"></path><path d="M833.7 586.3V232.5c0-6.6-5.7-12-12.7-12H205.1c-7 0-12.7 5.4-12.7 12v167.4l205.5 198.4H821c7 0 12.7-5.4 12.7-12z" p-id="10658"></path></svg>