<?xml version="1.0" standalone="no"?><!DOCTYPE svg PUBLIC "-//W3C//DTD SVG 1.1//EN" "http://www.w3.org/Graphics/SVG/1.1/DTD/svg11.dtd"><svg t="1614841269588" class="icon" viewBox="0 0 1024 1024" version="1.1" xmlns="http://www.w3.org/2000/svg" p-id="1456" xmlns:xlink="http://www.w3.org/1999/xlink" width="128" height="128"><defs><style type="text/css"></style></defs><path d="M987.8 84.8c20.5 0 36.4 15.5 36.4 34.3 0 18.7-16.5 34.3-36.4 34.3h-35.2v516.9c0 56.2-48.3 101.8-108 101.8h-245l159.2 150c14.2 13.4 14.2 34.8 0 48.2-6.8 6.4-16.5 10.2-25.6 10.2-9.1 0-18.8-3.2-25.6-10.2L513.8 787.6 319.9 970.3c-14.2 13.4-36.9 13.4-51.2 0-14.2-13.4-14.2-34.8 0-48.2l159.2-150h-245c-59.7 0-108-45.5-108-101.8V153.4H37.4C16.9 153.4 1 137.8 1 119.1c0-18.7 16.5-34.3 36.4-34.3h950.4zM550.1 532.1h-220c-20.5 0-36.4 15.5-36.4 34.3 0 18.7 16.5 34.3 36.4 34.3h220.5c20.5 0 36.4-15.5 36.4-34.3 0.1-18.8-16.4-34.3-36.9-34.3z m145-138.8H330.2c-20.5 0-36.4 15.5-36.4 34.3 0 19.3 16.5 34.3 36.4 34.3h365.5c20.5 0 36.4-15.5 36.4-34.3-0.1-18.7-16.6-34.3-37-34.3z m0-136.5H330.2c-20.5 0-36.4 15.5-36.4 34.3 0 18.7 16.5 34.3 36.4 34.3h365.5c20.5 0 36.4-15.5 36.4-34.3-0.1-18.8-16.6-34.3-37-34.3z m0 0" p-id="1457"></path></svg>