<?xml version="1.0" standalone="no"?><!DOCTYPE svg PUBLIC "-//W3C//DTD SVG 1.1//EN" "http://www.w3.org/Graphics/SVG/1.1/DTD/svg11.dtd"><svg t="1614049070114" class="icon" viewBox="0 0 1024 1024" version="1.1" xmlns="http://www.w3.org/2000/svg" p-id="1941" xmlns:xlink="http://www.w3.org/1999/xlink" width="128" height="128"><defs><style type="text/css"></style></defs><path d="M761.2 497.7l4.5 0.2c10.5 0.9 20.5 5.2 28.5 12.4l3.3 3.2 3.2 3.3c3.3 3.1 7 5.9 10.9 8.1l4 2.1 4-2c3.9-2.2 7.6-4.9 10.9-8l3.2-3.2 3.3-3.1c8-7 18-11.2 28.5-12.1l4.5-0.1 4 0.1c4 0.3 7.9 1.2 11.6 2.5l3.7 1.5 2.5 1.2 47.9 27.9c17.6 12.8 24.8 36 18.1 56.8l-1.4 3.9-0.9 2.6-0.7 2.7-0.4 2.7 0.1 2.7c1 9.8 8.6 17.6 18.3 19.1l2.6 0.2 3.9 0.2c19.1 1.8 34.8 16.4 38.8 35.8l0.6 4 0.7 0.1c5 24.8 5.5 50.3 1.7 75.2l-1.7 9.3-0.6 3.9c-3.9 19.1-19.1 33.6-37.7 36l-3.7 0.3h-0.4c-11 0-20.3 8.3-21.6 19.2l-0.2 2.8 0.4 2.7 0.6 2.7 0.9 2.6 1.4 3.9c6.2 19.5 0.4 41-14.8 54.3l-3.1 2.5-2.5 1.7-49.1 28.1c-4.8 2.1-10 3.5-15.2 3.9l-3.9 0.1-4.1-0.1c-11.1-0.9-21.6-5.7-29.7-13.4l-2.9-3.1-3.3-3.5c-3.4-3.3-7.2-6.2-11.4-8.6l-4.2-2.2-4.1 2.2c-4.1 2.4-7.8 5.2-11.3 8.4l-3.3 3.4-3.3 3.3c-8 7.3-18.1 11.8-28.9 12.8l-4.6 0.2-4-0.2c-4-0.3-8-1.2-11.7-2.5l-3.7-1.5-2.4-1.2-47.3-27.7c-17.4-12.9-24.5-36-17.8-56.8l1.4-3.8 0.9-2.6 0.6-2.6 0.4-2.7-0.1-2.8c-1.1-9.8-8.6-17.6-18.3-19.1l-2.6-0.2h-1.9c-20.2-0.9-36.9-16-40.9-36.2l-0.6-3.8-1.7-10.5c-1-7-1.7-14.1-2.1-21.2l-0.4-10.6 0.4-10.6c0.4-7 1.1-14 2.1-21l1.7-10.4 0.6-3.9c3.6-19 18.6-33.6 37.1-36.1l3.7-0.3h1c11.1 0 20.5-8.2 21.9-19.3l0.2-2.8-0.4-2.7-0.9-3-0.9-2.6-1.4-3.9c-6.3-19.5-0.4-40.8 14.9-54.3l3.1-2.5 2.5-1.7 49.9-28.3c6-2.7 12.5-4 19.1-4zM628.8 0c6.6 0 13 2.6 17.7 7.3 4.7 4.7 7.3 11 7.3 17.7v37.8h215.7c26.5 0 51.9 10.5 70.6 29.3 18.7 18.7 29.3 44.1 29.3 70.6v290.8h-0.1l0.1 0.9c0 12.7-9.5 23.3-22.1 24.8l-2.9 0.2c-12.7 0-23.4-9.5-24.8-22.1l-0.1-2.9V301.5H50v478.9c0 26.1 20.2 47.8 46.2 49.8l3.7 0.2h471.6c12.7 0 23.3 9.5 24.8 22.1l0.2 2.9c0 6.6-2.6 13-7.3 17.7-4.7 4.7-11 7.3-17.7 7.3H99.9c-26.5 0-51.9-10.5-70.6-29.3C10.5 832.2 0 806.8 0 780.3V162.8c0-55.2 44.7-99.9 99.9-99.9h153V25c0-13.8 11.2-25 25-25s25 11.2 25 25v37.8h301V25c0-6.6 2.6-13 7.3-17.7 4.7-4.7 11-7.3 17.6-7.3z m133.3 547.9h-1.5l-44.2 25.2c3 7 4.9 14.4 5.7 22l0.4 5.7-0.1 4.3c-1.9 34.7-27.7 63-61 66.9l-4.2 0.4-1.3 8.1c-0.7 5.4-1.3 10.9-1.7 16.4l-0.4 8.2 0.4 8.2c0.3 5.5 0.9 10.9 1.7 16.3l1.3 8.1 5.1 0.4c6.8 0.8 13.5 2.7 19.7 5.6 33.1 15.2 48.7 54.4 36.3 89.1l-1.6 4.2 41.6 24.3 0.9-0.1 0.8-0.4 5-5.1c2.3-2.2 4.7-4.3 7.2-6.3l3.7-3 4.3-3.3c7.4-5.2 15.7-8.9 24.5-10.9l5.3-1 1.9-0.1 1.8 0.1 4.9 0.6c17.8 2.9 34 12 46.1 25.8l3.5 4.3h0.9l43.6-25.2c-3-7-4.9-14.4-5.7-22l-0.4-5.7 0.1-4.3c2-36.1 29.9-65.3 65.2-67.2h-0.1l1.2-7.7c0.8-5.4 1.3-10.9 1.7-16.4l0.3-8.2-0.4-8.2c-0.4-5.5-0.9-10.9-1.7-16.4l-1.3-8.1c-8.6-0.4-17.1-2.4-25-6-33-15.2-48.6-54.4-36.1-89.2l1.6-4.1-42.4-24.7h-1.6c-4.3 6.4-9.8 12-16 16.5-29.3 21-69.6 13.4-90-17.1z m58.9 67.6l4.7 0.1c43.5 2.5 78.4 38.7 80.7 83.8l0.1 4.9c0 49.1-38.4 88.9-85.7 88.8-47.3-0.1-85.6-39.8-85.5-88.9 0-49 38.4-88.8 85.7-88.7z m0 49.7c-20.8 0-37.6 17.5-37.6 39.1 0 20.4 15 37.1 34.2 38.9l3.4 0.2 3.4-0.2c18-1.7 32.4-16.6 34-35.3l0.2-3.5-0.2-3.6c-1.7-20-17.8-35.5-37.4-35.6z m-549.5-61.6c17 0.5 30.6 14.4 30.6 31.4s-13.5 31-30.6 31.4h-58.3c-17-0.5-30.6-14.4-30.6-31.4s13.5-31 30.6-31.4h58.3z m181.7 0c11.4-0.3 22.2 5.6 28 15.5a31.6 31.6 0 0 1 0 32c-5.8 9.9-16.5 15.8-28 15.5h-58.3c-17-0.5-30.6-14.4-30.6-31.4s13.5-31 30.6-31.4h58.3zM271.5 440.1c17 0.5 30.6 14.4 30.6 31.4s-13.5 31-30.6 31.4h-58.3c-17-0.5-30.6-14.4-30.6-31.4s13.5-31 30.6-31.4h58.3z m181.7 0c17 0.5 30.6 14.4 30.6 31.4s-13.5 31-30.6 31.4h-58.3c-11.4 0.3-22.2-5.6-28-15.5a31.6 31.6 0 0 1 0-32c5.8-9.9 16.5-15.8 28-15.5h58.3z m181.8 0c17 0.5 30.6 14.4 30.6 31.4s-13.5 31-30.6 31.4h-58.3c-17-0.5-30.6-14.4-30.6-31.4s13.5-31 30.6-31.4H635z m234.5-327.3H653.8v50.9c0 13.8-11.2 25-25 25s-25-11.2-25-25v-50.9H302.9v50.9c0 13.8-11.2 25-25 25s-25-11.2-25-25v-50.9h-153C73.8 112.8 52 133 50.1 159l-0.2 3.8v88.8h869.4v-88.8c0.1-27.6-22.3-50-49.8-50z m0 0" p-id="1942" fill="#4460E6"></path></svg>