<?xml version="1.0" standalone="no"?><!DOCTYPE svg PUBLIC "-//W3C//DTD SVG 1.1//EN" "http://www.w3.org/Graphics/SVG/1.1/DTD/svg11.dtd"><svg t="1614130108267" class="icon" viewBox="0 0 1024 1024" version="1.1" xmlns="http://www.w3.org/2000/svg" p-id="1413" width="128" height="128" xmlns:xlink="http://www.w3.org/1999/xlink"><defs><style type="text/css"></style></defs><path d="M956.033187 11.594339L562.725232 404.902294c-9.99512 9.99512-13.793265 24.488043-10.195022 38.081405 3.598243 13.593363 14.293021 24.188189 27.886383 27.886384 13.593363 3.598243 28.086286-0.199902 38.081406-10.195022l393.307955-393.307955c15.392484-15.392484 15.392484-40.280332 0-55.672816C996.313519-3.798145 971.425671-3.798145 956.033187 11.594339z m-90.155979 932.444704h-786.61591V78.761542h432.588775c21.689409 0 39.380771-17.59141 39.380771-39.380771 0-21.689409-17.59141-39.380771-39.380771-39.380771H39.880527c-10.394924 0-20.390044 4.097999-27.786432 11.494388C4.697706 18.990727 0.599707 28.985847 0.599707 39.480722v943.939093c0 10.394924 4.097999 20.390044 11.494388 27.786432 7.396388 7.396388 17.391508 11.494388 27.786432 11.494387h865.277501c10.394924 0 20.390044-4.097999 27.786433-11.494387 7.396388-7.396388 11.494388-17.391508 11.494387-27.786432V432.788677c0-21.689409-17.59141-39.380771-39.380771-39.380771-21.689409 0-39.380771 17.59141-39.380771 39.380771l0.199902 511.250366z m-668.673499-629.292728h157.323182c21.689409 0 39.380771-17.59141 39.380771-39.380771 0-21.689409-17.59141-39.380771-39.380771-39.380771H197.203709c-21.689409 0-39.380771 17.59141-39.380771 39.380771 0.099951 21.789361 17.691362 39.380771 39.380771 39.380771z m0 235.984773h157.323182c21.689409 0 39.28082-17.59141 39.28082-39.380771 0-21.689409-17.59141-39.28082-39.28082-39.28082H197.203709c-21.689409 0-39.380771 17.59141-39.380771 39.28082 0.099951 21.789361 17.691362 39.380771 39.380771 39.380771z m0 235.984773h471.969546c21.689409 0 39.380771-17.59141 39.380771-39.28082 0-21.689409-17.59141-39.380771-39.380771-39.380771H197.203709c-21.689409 0-39.380771 17.59141-39.380771 39.380771 0.099951 21.689409 17.691362 39.28082 39.380771 39.28082z m0 0" p-id="1414" fill="#ffffff"></path></svg>