<?xml version="1.0" standalone="no"?><!DOCTYPE svg PUBLIC "-//W3C//DTD SVG 1.1//EN" "http://www.w3.org/Graphics/SVG/1.1/DTD/svg11.dtd"><svg t="1614219386738" class="icon" viewBox="0 0 1024 1024" version="1.1" xmlns="http://www.w3.org/2000/svg" p-id="2667" xmlns:xlink="http://www.w3.org/1999/xlink" width="128" height="128"><defs><style type="text/css"></style></defs><path d="M262.6 214.3c0 75.9 40.5 146.1 106.3 184.1s146.8 38 212.6 0c65.8-38 106.3-108.1 106.3-184.1 0-117.4-95.2-212.6-212.6-212.6S262.6 96.9 262.6 214.3z m0 0M437.3 863.7l-15.8-27.3a54.56 54.56 0 0 1 0-54.7l15.8-27.3 123-213.2 1.4-2.5c-140.5-20.9-283.1 20.7-390.3 113.9C64.3 745.7 3.2 881.1 4.2 1023.1h525.2l-92.1-159.4z m0 0" p-id="2668" ></path><path d="M868.8 582.3H687.2c-22.5-0.1-43.4 11.9-54.7 31.4L542 770.9c-11.3 19.5-11.3 43.5 0 62.9l90.8 157.3c11.3 19.5 32.1 31.5 54.7 31.4H869c22.5 0.1 43.4-11.9 54.7-31.4l90.8-157.3c11.3-19.5 11.3-43.5 0-62.9l-90.8-157.3c-11.3-19.5-32.3-31.5-54.9-31.3zM778 859.1c-22.9 0-43.6-13.8-52.4-35-8.8-21.2-3.9-45.6 12.4-61.8 16.2-16.2 40.7-21 61.8-12.2 21.2 8.8 34.9 29.5 34.9 52.5-0.1 31.2-25.5 56.5-56.7 56.5z m0 0" p-id="2669" ></path></svg>